<svg width="1600" height="1000" viewBox="0 0 1600 1000" fill="none" xmlns="http://www.w3.org/2000/svg">
  <defs>
    <linearGradient id="bg" x1="0" y1="0" x2="1600" y2="1000" gradientUnits="userSpaceOnUse">
      <stop stop-color="#F8FBFF"/>
      <stop offset="0.55" stop-color="#FFFDFB"/>
      <stop offset="1" stop-color="#F9F6FF"/>
    </linearGradient>
    <linearGradient id="titleLine" x1="0" y1="0" x2="1" y2="0">
      <stop stop-color="#4AA7FF"/>
      <stop offset="0.5" stop-color="#7A6CFF"/>
      <stop offset="1" stop-color="#7AD37A"/>
    </linearGradient>
    <linearGradient id="centerPanel" x1="0" y1="0" x2="1" y2="1">
      <stop stop-color="#0D254B"/>
      <stop offset="1" stop-color="#07162C"/>
    </linearGradient>
    <linearGradient id="moduleBlue" x1="0" y1="0" x2="1" y2="1">
      <stop stop-color="#E9F4FF"/>
      <stop offset="1" stop-color="#D8EAFF"/>
    </linearGradient>
    <linearGradient id="moduleGreen" x1="0" y1="0" x2="1" y2="1">
      <stop stop-color="#ECFFF3"/>
      <stop offset="1" stop-color="#DDF7E8"/>
    </linearGradient>
    <linearGradient id="modulePurple" x1="0" y1="0" x2="1" y2="1">
      <stop stop-color="#F4EEFF"/>
      <stop offset="1" stop-color="#E7DDFF"/>
    </linearGradient>
    <linearGradient id="moduleGold" x1="0" y1="0" x2="1" y2="1">
      <stop stop-color="#FFF6E7"/>
      <stop offset="1" stop-color="#FFE7C8"/>
    </linearGradient>
    <linearGradient id="moduleCyan" x1="0" y1="0" x2="1" y2="1">
      <stop stop-color="#EAFBFF"/>
      <stop offset="1" stop-color="#D5F3FA"/>
    </linearGradient>
    <linearGradient id="moduleRed" x1="0" y1="0" x2="1" y2="1">
      <stop stop-color="#FFF0F0"/>
      <stop offset="1" stop-color="#FFDCDD"/>
    </linearGradient>
    <linearGradient id="badge" x1="0" y1="0" x2="1" y2="0">
      <stop stop-color="#233F75"/>
      <stop offset="1" stop-color="#202142"/>
    </linearGradient>
    <filter id="shadow" x="-20%" y="-20%" width="140%" height="140%">
      <feDropShadow dx="0" dy="10" stdDeviation="12" flood-color="#23324A" flood-opacity="0.18"/>
    </filter>
    <filter id="softGlow" x="-50%" y="-50%" width="200%" height="200%">
      <feGaussianBlur stdDeviation="8" result="blur"/>
      <feMerge>
        <feMergeNode in="blur"/>
        <feMergeNode in="SourceGraphic"/>
      </feMerge>
    </filter>
    <style>
      .title { font: 800 46px 'Segoe UI', Arial, sans-serif; fill: #25385C; }
      .pill { font: 700 18px 'Segoe UI', Arial, sans-serif; fill: #fff; }
      .centerTitle { font: 800 54px 'Segoe UI', Arial, sans-serif; fill: #fff; }
      .centerSub { font: 600 26px 'Segoe UI', Arial, sans-serif; fill: #DCEBFF; }
      .centerBody { font: 400 24px 'Segoe UI', Arial, sans-serif; fill: #DCE6F8; }
      .moduleTitle { font: 700 23px 'Segoe UI', Arial, sans-serif; fill: #29415F; }
      .moduleBody { font: 400 17px 'Segoe UI', Arial, sans-serif; fill: #4A5F78; }
      .bottomTitle { font: 700 21px 'Segoe UI', Arial, sans-serif; fill: #344863; }
      .bottomBody { font: 400 16px 'Segoe UI', Arial, sans-serif; fill: #5A6E86; }
    </style>
    <marker id="arrowBlue" viewBox="0 0 10 10" refX="9" refY="5" markerWidth="8" markerHeight="8" orient="auto-start-reverse">
      <path d="M0 0L10 5L0 10Z" fill="#57A8FF"/>
    </marker>
    <marker id="arrowGreen" viewBox="0 0 10 10" refX="9" refY="5" markerWidth="8" markerHeight="8" orient="auto-start-reverse">
      <path d="M0 0L10 5L0 10Z" fill="#72CB7E"/>
    </marker>
    <marker id="arrowPurple" viewBox="0 0 10 10" refX="9" refY="5" markerWidth="8" markerHeight="8" orient="auto-start-reverse">
      <path d="M0 0L10 5L0 10Z" fill="#9C7DFF"/>
    </marker>
    <marker id="arrowGold" viewBox="0 0 10 10" refX="9" refY="5" markerWidth="8" markerHeight="8" orient="auto-start-reverse">
      <path d="M0 0L10 5L0 10Z" fill="#F0B454"/>
    </marker>
    <marker id="arrowCyan" viewBox="0 0 10 10" refX="9" refY="5" markerWidth="8" markerHeight="8" orient="auto-start-reverse">
      <path d="M0 0L10 5L0 10Z" fill="#5BC7D7"/>
    </marker>
    <marker id="arrowRed" viewBox="0 0 10 10" refX="9" refY="5" markerWidth="8" markerHeight="8" orient="auto-start-reverse">
      <path d="M0 0L10 5L0 10Z" fill="#FF7E87"/>
    </marker>
  </defs>

  <rect width="1600" height="1000" fill="url(#bg)"/>
  <path d="M0 85C120 10 165 10 255 92" stroke="#B9D8FF" stroke-width="7" opacity="0.7"/>
  <path d="M0 115C110 45 170 40 250 118" stroke="#D1C0FF" stroke-width="5" opacity="0.6"/>
  <path d="M1600 95C1495 30 1420 36 1345 115" stroke="#FFDAB3" stroke-width="6" opacity="0.7"/>
  <path d="M1600 130C1510 72 1442 76 1368 140" stroke="#CDEED4" stroke-width="4" opacity="0.7"/>
  <path d="M0 920C85 860 165 848 245 915" stroke="#D7C9FF" stroke-width="5" opacity="0.55"/>
  <path d="M1600 930C1495 865 1420 860 1338 918" stroke="#CBEFFF" stroke-width="5" opacity="0.55"/>

  <text x="800" y="78" text-anchor="middle" class="title">PROPOSED FUTURE MODULE DIAGRAM</text>
  <rect x="495" y="96" width="610" height="38" rx="19" fill="url(#badge)"/>
  <text x="800" y="121" text-anchor="middle" class="pill">Syncwise 2.0 - Smarter Collaboration, Better Project Delivery</text>
  <rect x="565" y="152" width="470" height="4" rx="2" fill="url(#titleLine)"/>

  <g filter="url(#shadow)">
    <rect x="575" y="220" width="450" height="340" rx="32" fill="url(#centerPanel)"/>
  </g>

  <g filter="url(#softGlow)">
    <circle cx="800" cy="292" r="44" fill="#112D57" stroke="#8AB7FF" stroke-width="3"/>
    <path d="M780 300C780 286 791 274 805 274C819 274 830 286 830 300C830 314 819 326 805 326C791 326 780 314 780 300Z" stroke="#B8D2FF" stroke-width="3" fill="none"/>
    <path d="M770 296H780M830 296H840M805 262V274M792 285L785 278M818 285L825 278M792 315L785 322M818 315L825 322" stroke="#B8D2FF" stroke-width="3" stroke-linecap="round"/>
  </g>

  <text x="800" y="390" text-anchor="middle" class="centerTitle">SYNCWISE</text>
  <text x="800" y="432" text-anchor="middle" class="centerSub">AI-Ready Project Collaboration Platform</text>
  <text x="800" y="486" text-anchor="middle" class="centerBody">Transform project workflows into</text>
  <text x="800" y="520" text-anchor="middle" class="centerBody">smarter, faster, and more transparent</text>
  <text x="800" y="554" text-anchor="middle" class="centerBody">company-client collaboration</text>

  <g filter="url(#shadow)">
    <rect x="70" y="235" width="360" height="112" rx="24" fill="url(#moduleBlue)" stroke="#8ABFFF"/>
    <rect x="70" y="375" width="360" height="112" rx="24" fill="url(#moduleGreen)" stroke="#91D7A4"/>
    <rect x="70" y="515" width="360" height="112" rx="24" fill="url(#modulePurple)" stroke="#B29DFF"/>

    <rect x="1170" y="235" width="360" height="112" rx="24" fill="url(#moduleGold)" stroke="#F4C572"/>
    <rect x="1170" y="375" width="360" height="112" rx="24" fill="url(#moduleCyan)" stroke="#7BD3E1"/>
    <rect x="1170" y="515" width="360" height="112" rx="24" fill="url(#moduleRed)" stroke="#FF9BA1"/>
  </g>

  <g>
    <circle cx="130" cy="291" r="42" fill="#5EA9FF"/>
    <rect x="112" y="271" width="36" height="42" rx="6" fill="#fff" opacity="0.95"/>
    <path d="M120 284H140M120 293H140M120 302H134" stroke="#5EA9FF" stroke-width="3" stroke-linecap="round"/>
    <text x="185" y="282" class="moduleTitle">File &amp; Document Hub</text>
    <text x="185" y="307" class="moduleBody">- Secure deliverable uploads</text>
    <text x="185" y="332" class="moduleBody">- Contracts, revisions, approvals</text>

    <circle cx="130" cy="431" r="42" fill="#6CC486"/>
    <path d="M112 446C112 425 128 410 149 410H150V452H118C114 452 112 450 112 446Z" fill="#fff"/>
    <path d="M120 422H142M120 432H142M120 442H134" stroke="#6CC486" stroke-width="3" stroke-linecap="round"/>
    <text x="185" y="422" class="moduleTitle">Workflow Automation</text>
    <text x="185" y="447" class="moduleBody">- Auto reminders for deadlines</text>
    <text x="185" y="472" class="moduleBody">- Smart status-based notifications</text>

    <circle cx="130" cy="571" r="42" fill="#9C7DFF"/>
    <path d="M112 590V562L132 548L150 562V590H112Z" fill="#fff"/>
    <path d="M122 580H140M122 570H140" stroke="#9C7DFF" stroke-width="3" stroke-linecap="round"/>
    <text x="185" y="562" class="moduleTitle">Analytics Engine</text>
    <text x="185" y="587" class="moduleBody">- Project performance metrics</text>
    <text x="185" y="612" class="moduleBody">- Delay and ticket trend analysis</text>
  </g>

  <g>
    <circle cx="1230" cy="291" r="42" fill="#F2B858"/>
    <rect x="1210" y="274" width="40" height="28" rx="12" fill="#fff"/>
    <circle cx="1224" cy="288" r="4" fill="#F2B858"/>
    <circle cx="1238" cy="288" r="4" fill="#F2B858"/>
    <path d="M1224 304H1238" stroke="#F2B858" stroke-width="3" stroke-linecap="round"/>
    <text x="1285" y="282" class="moduleTitle">AI &amp; Insights</text>
    <text x="1285" y="307" class="moduleBody">- AI project summaries</text>
    <text x="1285" y="332" class="moduleBody">- Smart risk and delay alerts</text>

    <circle cx="1230" cy="431" r="42" fill="#61C9D9"/>
    <rect x="1209" y="410" width="42" height="42" rx="8" fill="#fff"/>
    <path d="M1218 420H1242M1218 430H1242M1218 440H1234" stroke="#61C9D9" stroke-width="3" stroke-linecap="round"/>
    <text x="1285" y="422" class="moduleTitle">Visualization</text>
    <text x="1285" y="447" class="moduleBody">- Advanced analytics dashboards</text>
    <text x="1285" y="472" class="moduleBody">- Team and client activity views</text>

    <circle cx="1230" cy="571" r="42" fill="#FF7E87"/>
    <path d="M1230 548L1248 558V578C1248 592 1238 602 1230 606C1222 602 1212 592 1212 578V558L1230 548Z" fill="#fff"/>
    <path d="M1230 566V588M1222 576H1238" stroke="#FF7E87" stroke-width="3" stroke-linecap="round"/>
    <text x="1285" y="562" class="moduleTitle">Security &amp; Access</text>
    <text x="1285" y="587" class="moduleBody">- Fine-grained role permissions</text>
    <text x="1285" y="612" class="moduleBody">- Stronger data protection rules</text>
  </g>

  <path d="M430 291H540V282H575" stroke="#57A8FF" stroke-width="3" stroke-dasharray="8 8" marker-end="url(#arrowBlue)"/>
  <path d="M430 431H520V390H575" stroke="#72CB7E" stroke-width="3" stroke-dasharray="8 8" marker-end="url(#arrowGreen)"/>
  <path d="M430 571H520V500H575" stroke="#9C7DFF" stroke-width="3" stroke-dasharray="8 8" marker-end="url(#arrowPurple)"/>

  <path d="M1025 282H1070V291H1170" stroke="#F0B454" stroke-width="3" stroke-dasharray="8 8" marker-end="url(#arrowGold)"/>
  <path d="M1025 390H1085V431H1170" stroke="#5BC7D7" stroke-width="3" stroke-dasharray="8 8" marker-end="url(#arrowCyan)"/>
  <path d="M1025 500H1085V571H1170" stroke="#FF7E87" stroke-width="3" stroke-dasharray="8 8" marker-end="url(#arrowRed)"/>

  <rect x="620" y="650" width="360" height="40" rx="20" fill="#3E4D64"/>
  <text x="800" y="676" text-anchor="middle" class="pill">PROPOSED FUTURE MODULES</text>
  <path d="M800 560V648" stroke="#8A9CB6" stroke-width="3"/>

  <line x1="160" y1="740" x2="1440" y2="740" stroke="#9FB0C6" stroke-width="2" stroke-dasharray="7 7"/>

  <g filter="url(#shadow)">
    <rect x="80" y="770" width="250" height="165" rx="24" fill="#FFF7E5" stroke="#F0C14F"/>
    <rect x="370" y="770" width="250" height="165" rx="24" fill="#ECFFF0" stroke="#7CCB83"/>
    <rect x="660" y="770" width="250" height="165" rx="24" fill="#F4EDFF" stroke="#A385FF"/>
    <rect x="950" y="770" width="250" height="165" rx="24" fill="#ECFAFF" stroke="#64C8E2"/>
    <rect x="1240" y="770" width="250" height="165" rx="24" fill="#FFF0E6" stroke="#FFAA64"/>
  </g>

  <g>
    <circle cx="205" cy="805" r="34" fill="#F0C14F"/>
    <path d="M205 787C195 787 188 794 188 804C188 814 195 821 205 821C215 821 222 814 222 804C222 794 215 787 205 787Z" fill="#fff"/>
    <path d="M205 798V810M199 804H211" stroke="#F0C14F" stroke-width="3" stroke-linecap="round"/>
    <text x="125" y="855" class="bottomTitle">Smart Query Assistant</text>
    <text x="105" y="882" class="bottomBody">Enables AI suggestions for</text>
    <text x="105" y="905" class="bottomBody">tickets, replies, and status notes.</text>

    <circle cx="495" cy="805" r="34" fill="#79C86A"/>
    <rect x="478" y="788" width="34" height="34" rx="6" fill="#fff"/>
    <path d="M486 798H504M486 807H504M486 816H498" stroke="#79C86A" stroke-width="3" stroke-linecap="round"/>
    <text x="433" y="855" class="bottomTitle">Mobile Application</text>
    <text x="395" y="882" class="bottomBody">Dedicated mobile access for</text>
    <text x="395" y="905" class="bottomBody">projects, tickets, and chat.</text>

    <circle cx="785" cy="805" r="34" fill="#A36DFF"/>
    <path d="M785 788L800 798V812C800 822 792 829 785 833C778 829 770 822 770 812V798L785 788Z" fill="#fff"/>
    <path d="M785 799V812M779 806H791" stroke="#A36DFF" stroke-width="3" stroke-linecap="round"/>
    <text x="730" y="855" class="bottomTitle">Smart Alerts</text>
    <text x="690" y="882" class="bottomBody">Real-time reminders for</text>
    <text x="690" y="905" class="bottomBody">deadlines, tickets, and changes.</text>

    <circle cx="1075" cy="805" r="34" fill="#58C7E4"/>
    <path d="M1062 811C1062 801 1070 793 1080 793C1090 793 1098 801 1098 811" stroke="#fff" stroke-width="4"/>
    <path d="M1066 811H1094V822H1066V811Z" fill="#fff"/>
    <text x="994" y="855" class="bottomTitle">Third-Party Integration</text>
    <text x="979" y="882" class="bottomBody">Connect with email, calendar,</text>
    <text x="979" y="905" class="bottomBody">payment, and CRM systems.</text>

    <circle cx="1365" cy="805" r="34" fill="#FF964A"/>
    <path d="M1348 805C1348 795 1356 787 1366 787C1376 787 1384 795 1384 805C1384 815 1376 823 1366 823C1356 823 1348 815 1348 805Z" fill="#fff"/>
    <path d="M1358 805H1374M1366 797V813" stroke="#FF964A" stroke-width="3" stroke-linecap="round"/>
    <text x="1300" y="855" class="bottomTitle">Advanced AI Models</text>
    <text x="1270" y="882" class="bottomBody">Improve prediction, summary,</text>
    <text x="1270" y="905" class="bottomBody">and project risk detection.</text>
  </g>

  <path d="M205 740V770" stroke="#F0C14F" stroke-width="3" marker-end="url(#arrowGold)"/>
  <path d="M495 740V770" stroke="#72CB7E" stroke-width="3" marker-end="url(#arrowGreen)"/>
  <path d="M785 740V770" stroke="#9C7DFF" stroke-width="3" marker-end="url(#arrowPurple)"/>
  <path d="M1075 740V770" stroke="#5BC7D7" stroke-width="3" marker-end="url(#arrowCyan)"/>
  <path d="M1365 740V770" stroke="#F0B454" stroke-width="3" marker-end="url(#arrowGold)"/>
</svg>
